<svg xmlns="http://www.w3.org/2000/svg" viewBox="0 0 900 300" width="900" height="300">
  <defs>
    <linearGradient id="bg" x1="0" y1="0" x2="1" y2="1">
      <stop offset="0" stop-color="#09090b"/>
      <stop offset="1" stop-color="#141821"/>
    </linearGradient>
    <linearGradient id="accent" x1="0" y1="0" x2="1" y2="1">
      <stop offset="0" stop-color="#34d399"/>
      <stop offset="0.55" stop-color="#22d3ee"/>
      <stop offset="1" stop-color="#60a5fa"/>
    </linearGradient>
  </defs>
  <rect width="900" height="300" rx="18" fill="url(#bg)"/>
  <g opacity="0.09" stroke="#e4e4e7" stroke-width="1">
    <path d="M0 60H900M0 120H900M0 180H900M0 240H900"/>
    <path d="M90 0V300M180 0V300M270 0V300M360 0V300M450 0V300M540 0V300M630 0V300M720 0V300M810 0V300"/>
  </g>
  <g transform="translate(112 71)">
    <rect x="0" y="0" width="158" height="158" rx="34" fill="#0f1218" stroke="#27272a"/>
    <path d="M55 122V38M103 122V38" stroke="url(#accent)" stroke-width="9" stroke-linecap="round"/>
    <path d="M55 55H103M55 80H103M55 105H103" stroke="url(#accent)" stroke-width="9" stroke-linecap="round"/>
    <circle cx="55" cy="122" r="11" fill="#0f1218" stroke="#34d399" stroke-width="6"/>
    <circle cx="103" cy="38" r="14" fill="url(#accent)"/>
  </g>
  <g font-family="system-ui, -apple-system, BlinkMacSystemFont, Segoe UI, sans-serif">
    <text x="326" y="118" fill="#fafafa" font-size="56" font-weight="800">HLD Ladder</text>
    <text x="328" y="157" fill="#a1a1aa" font-size="18">Progressive system design practice for beginners</text>
    <rect x="328" y="182" width="338" height="3" rx="1.5" fill="url(#accent)"/>
    <g fill="#d4d4d8" font-size="13" font-weight="600">
      <text x="328" y="222">Level based</text>
      <text x="442" y="222">Hints</text>
      <text x="510" y="222">Simulation</text>
      <text x="623" y="222">Scoring</text>
    </g>
  </g>
</svg>